<svg xmlns="http://www.w3.org/2000/svg" width="24" height="24" fill="none"><g fill="#000" clip-path="url(#a)"><path d="M12 24a2.58 2.58 0 0 0 2.341-1.5H9.659A2.58 2.58 0 0 0 12 24M11.297 17.812v-5.686c-1.603-.283-2.813-1.514-2.813-2.985a.703.703 0 0 1 1.407 0c0 .712.587 1.32 1.406 1.546V.481A3.04 3.04 0 0 0 9.657 0a3.05 3.05 0 0 0-2.998 2.509 3.975 3.975 0 0 0-1.911 6.397 3.975 3.975 0 0 0 1.912 6.398 3.05 3.05 0 0 0 2.996 2.508zM8.484 19.922c0 .647.525 1.172 1.172 1.172h4.688c.647 0 1.172-.525 1.172-1.172v-.703H8.484zM17.34 2.509A3.05 3.05 0 0 0 14.345 0c-.592 0-1.158.171-1.64.48v5.206c1.602.283 2.812 1.514 2.812 2.986a.703.703 0 0 1-1.407 0c0-.713-.588-1.32-1.406-1.547v10.687h1.64a3.05 3.05 0 0 0 2.998-2.508 3.975 3.975 0 0 0 1.911-6.398 3.975 3.975 0 0 0-1.912-6.398M21.891 3.985a.703.703 0 0 1-.39-1.289l1.406-.937a.703.703 0 1 1 .78 1.17l-1.406.937a.7.7 0 0 1-.39.119M23.296 15.703a.7.7 0 0 1-.39-.118l-1.405-.937a.703.703 0 1 1 .78-1.17l1.406.937a.703.703 0 0 1-.39 1.288M2.109 3.985a.7.7 0 0 1-.39-.119L.313 2.93a.703.703 0 1 1 .78-1.17l1.406.937a.703.703 0 0 1-.39 1.289M.704 15.703a.702.702 0 0 1-.39-1.288l1.405-.937a.703.703 0 1 1 .78 1.17l-1.406.937a.7.7 0 0 1-.39.118M2.11 9.375H.703a.703.703 0 0 1 0-1.406H2.11a.703.703 0 0 1 0 1.406M23.297 9.375H21.89a.703.703 0 0 1 0-1.406h1.406a.703.703 0 0 1 0 1.406"/></g><defs><clipPath id="a"><path fill="#fff" d="M0 0h24v24H0z"/></clipPath></defs></svg>