<svg xmlns="http://www.w3.org/2000/svg" width="24" height="24" fill="none"><g fill="#0E0E10" clip-path="url(#a)"><path d="m16.52 13.36-5.88-5.88a1.73 1.73 0 0 0-1.645-.452L3.624 8.434a1.7 1.7 0 0 0-1.28 1.675A33.3 33.3 0 0 1 .074 22.457a1.137 1.137 0 0 0 1.463 1.462 33.3 33.3 0 0 1 12.348-2.263 1.7 1.7 0 0 0 1.675-1.28l1.41-5.371a1.72 1.72 0 0 0-.45-1.646m-5.326 3.513a2.877 2.877 0 1 1-4.068-4.068 2.877 2.877 0 0 1 4.068 4.068M23.498 7.37 16.629.5a1.714 1.714 0 0 0-2.424 0l-2.443 2.443c-.67.67-.67 1.755 0 2.424l6.868 6.869c.67.67 1.755.67 2.424 0l2.444-2.444c.669-.669.669-1.754 0-2.424"/></g><defs><clipPath id="a"><path fill="#fff" d="M0 0h24v24H0z"/></clipPath></defs></svg>